<svg width="36" height="36" viewBox="0 0 36 36" fill="none" xmlns="http://www.w3.org/2000/svg">
<rect width="35.7341" height="35.7341" rx="12.1821" fill="white"/>
<path d="M14.6184 21.1157H20.5171C24.1617 21.1157 24.716 18.8261 25.3882 15.4868C25.5821 14.5237 25.6791 14.0421 25.4459 13.7212C25.2128 13.4004 24.7658 13.4004 23.872 13.4004H12.9941" stroke="#141B34" stroke-width="1.21821" stroke-linecap="round"/>
<path d="M14.6181 21.1155L12.4893 10.9759C12.3085 10.2529 11.6588 9.74561 10.9135 9.74561H10.1514" stroke="#141B34" stroke-width="1.21821" stroke-linecap="round"/>
<path d="M15.3331 21.1157H14.999C13.8917 21.1157 12.9941 22.0507 12.9941 23.2041C12.9941 23.3963 13.1437 23.5521 13.3283 23.5521H22.3337" stroke="#141B34" stroke-width="1.21821" stroke-linecap="round" stroke-linejoin="round"/>
<path d="M16.6489 25.9887C17.3217 25.9887 17.8671 25.4433 17.8671 24.7705C17.8671 24.0977 17.3217 23.5522 16.6489 23.5522C15.9761 23.5522 15.4307 24.0977 15.4307 24.7705C15.4307 25.4433 15.9761 25.9887 16.6489 25.9887Z" stroke="#141B34" stroke-width="1.21821"/>
<path d="M22.3334 25.9887C23.0062 25.9887 23.5517 25.4433 23.5517 24.7705C23.5517 24.0977 23.0062 23.5522 22.3334 23.5522C21.6606 23.5522 21.1152 24.0977 21.1152 24.7705C21.1152 25.4433 21.6606 25.9887 22.3334 25.9887Z" stroke="#141B34" stroke-width="1.21821"/>
</svg>