<svg width="24" height="25" viewBox="0 0 24 25" fill="none" xmlns="http://www.w3.org/2000/svg">
<path d="M9 15.0405C9 12.2121 9 10.7979 9.87868 9.91921C10.7574 9.04053 12.1716 9.04053 15 9.04053H16C18.8284 9.04053 20.2426 9.04053 21.1213 9.91921C22 10.7979 22 12.2121 22 15.0405V16.0405C22 18.8689 22 20.2831 21.1213 21.1618C20.2426 22.0405 18.8284 22.0405 16 22.0405H15C12.1716 22.0405 10.7574 22.0405 9.87868 21.1618C9 20.2831 9 18.8689 9 16.0405V15.0405Z" stroke="#141B34" stroke-width="1.5" stroke-linecap="round" stroke-linejoin="round"/>
<path d="M16.9999 9.04053C16.9975 6.08344 16.9528 4.55174 16.092 3.50296C15.9258 3.30042 15.7401 3.11471 15.5376 2.94849C14.4312 2.04053 12.7875 2.04053 9.5 2.04053C6.21252 2.04053 4.56878 2.04053 3.46243 2.94849C3.25989 3.1147 3.07418 3.30042 2.90796 3.50296C2 4.60931 2 6.25305 2 9.54053C2 12.828 2 14.4717 2.90796 15.5781C3.07417 15.7806 3.25989 15.9663 3.46243 16.1325C4.51121 16.9933 6.04291 17.038 9 17.0404" stroke="#141B34" stroke-width="1.5" stroke-linecap="round" stroke-linejoin="round"/>
</svg>
