<svg width="64" height="42" viewBox="0 0 64 42" fill="none" xmlns="http://www.w3.org/2000/svg">
<path d="M59.5 17.9375L57.875 11.3125C58.0833 11.2708 58.2604 11.1562 58.4062 10.9688C58.5521 10.7812 58.625 10.5625 58.625 10.3125V9.25C58.625 8.08333 58.2188 7.09375 57.4062 6.28125C56.5938 5.46875 55.6042 5.0625 54.4375 5.0625H46.875V2.8125C46.875 2.27083 46.6771 1.79167 46.2812 1.375C45.8854 0.958332 45.3958 0.75 44.8125 0.75H6.375C5.79167 0.75 5.29167 0.958332 4.875 1.375C4.45833 1.79167 4.25 2.27083 4.25 2.8125V21C4.25 21.2917 4.35417 21.5312 4.5625 21.7188C4.77083 21.9062 5 22 5.25 22C5.54167 22 5.78125 21.9062 5.96875 21.7188C6.15625 21.5312 6.25 21.2917 6.25 21V2.8125C6.25 2.8125 6.26042 2.80208 6.28125 2.78125C6.30208 2.76042 6.33333 2.75 6.375 2.75H44.8125C44.8542 2.75 44.875 2.76042 44.875 2.78125C44.875 2.80208 44.875 2.8125 44.875 2.8125V21C44.875 21.2917 44.9792 21.5312 45.1875 21.7188C45.3958 21.9062 45.625 22 45.875 22C46.1667 22 46.4062 21.9062 46.5938 21.7188C46.7812 21.5312 46.875 21.2917 46.875 21V19.875H58.75C59.4583 19.875 60.0938 20.0833 60.6562 20.5C61.2188 20.9167 61.6042 21.4583 61.8125 22.125H58.75C58.4583 22.125 58.2188 22.2292 58.0312 22.4375C57.8438 22.6458 57.75 22.875 57.75 23.125V25.25C57.75 26.125 58.0521 26.875 58.6562 27.5C59.2604 28.125 60 28.4375 60.875 28.4375H62V32.8125H59.375C58.9583 31.5625 58.1979 30.5417 57.0938 29.75C55.9896 28.9583 54.75 28.5625 53.375 28.5625C52 28.5625 50.7604 28.9583 49.6562 29.75C48.5521 30.5417 47.7917 31.5625 47.375 32.8125H46.875V25.25C46.875 25 46.7812 24.7708 46.5938 24.5625C46.4062 24.3542 46.1667 24.25 45.875 24.25C45.625 24.25 45.3958 24.3542 45.1875 24.5625C44.9792 24.7708 44.875 25 44.875 25.25V32.8125H24.125C23.6667 31.5625 22.8958 30.5417 21.8125 29.75C20.7292 28.9583 19.5 28.5625 18.125 28.5625C16.7083 28.5625 15.4583 28.9583 14.375 29.75C13.2917 30.5417 12.5417 31.5625 12.125 32.8125H6.375C6.33333 32.8125 6.30208 32.8125 6.28125 32.8125C6.26042 32.8125 6.25 32.7917 6.25 32.75V30.5625H10.625C10.9167 30.5625 11.1562 30.4583 11.3438 30.25C11.5312 30.0417 11.625 29.8125 11.625 29.5625C11.625 29.2708 11.5312 29.0312 11.3438 28.8438C11.1562 28.6562 10.9167 28.5625 10.625 28.5625H1C0.708333 28.5625 0.46875 28.6562 0.28125 28.8438C0.09375 29.0312 0 29.2708 0 29.5625C0 29.8125 0.09375 30.0417 0.28125 30.25C0.46875 30.4583 0.708333 30.5625 1 30.5625H4.25V32.75C4.25 33.3333 4.45833 33.8229 4.875 34.2188C5.29167 34.6146 5.79167 34.8125 6.375 34.8125H11.75C11.75 34.8542 11.75 34.875 11.75 34.875C11.75 36.625 12.375 38.125 13.625 39.375C14.875 40.625 16.375 41.25 18.125 41.25C19.875 41.25 21.3646 40.625 22.5938 39.375C23.8229 38.125 24.4375 36.625 24.4375 34.875C24.4375 34.875 24.4375 34.8542 24.4375 34.8125H47.0625C47.0625 34.8542 47.0521 34.875 47.0312 34.875C47.0104 34.875 47 34.875 47 34.875C47 36.625 47.625 38.125 48.875 39.375C50.125 40.625 51.625 41.25 53.375 41.25C55.125 41.25 56.625 40.625 57.875 39.375C59.125 38.125 59.75 36.625 59.75 34.875C59.75 34.875 59.75 34.8542 59.75 34.8125H63C63.2917 34.8125 63.5312 34.7188 63.7188 34.5312C63.9062 34.3438 64 34.1042 64 33.8125V23.125C64 21.8333 63.5729 20.6875 62.7188 19.6875C61.8646 18.6875 60.7917 18.1042 59.5 17.9375ZM46.875 7.0625H54.4375C55.0625 7.0625 55.5833 7.27083 56 7.6875C56.4167 8.10417 56.625 8.625 56.625 9.25V9.3125H46.875V7.0625ZM46.875 17.875V11.3125H55.8125L57.4375 17.875H46.875ZM18.125 39.25C16.9167 39.25 15.8854 38.8229 15.0312 37.9688C14.1771 37.1146 13.75 36.0833 13.75 34.875C13.75 33.7083 14.1771 32.6979 15.0312 31.8438C15.8854 30.9896 16.9167 30.5625 18.125 30.5625C19.2917 30.5625 20.3021 30.9896 21.1562 31.8438C22.0104 32.6979 22.4375 33.7083 22.4375 34.875C22.4375 36.0833 22.0104 37.1146 21.1562 37.9688C20.3021 38.8229 19.2917 39.25 18.125 39.25ZM53.375 39.25C52.1667 39.25 51.1458 38.8229 50.3125 37.9688C49.4792 37.1146 49.0625 36.0833 49.0625 34.875C49.0625 33.7083 49.4792 32.6979 50.3125 31.8438C51.1458 30.9896 52.1667 30.5625 53.375 30.5625C54.5833 30.5625 55.6146 30.9896 56.4688 31.8438C57.3229 32.6979 57.75 33.7083 57.75 34.875C57.75 36.0833 57.3229 37.1146 56.4688 37.9688C55.6146 38.8229 54.5833 39.25 53.375 39.25ZM62 26.4375H60.875C60.5417 26.4375 60.2708 26.3229 60.0625 26.0938C59.8542 25.8646 59.75 25.5833 59.75 25.25V24.125H62V26.4375ZM18.125 32.8125C17.5417 32.8125 17.0521 33.0208 16.6562 33.4375C16.2604 33.8542 16.0625 34.3333 16.0625 34.875C16.0625 35.4583 16.2604 35.9479 16.6562 36.3438C17.0521 36.7396 17.5417 36.9375 18.125 36.9375C18.6667 36.9375 19.1458 36.7396 19.5625 36.3438C19.9792 35.9479 20.1875 35.4583 20.1875 34.875C20.1875 34.3333 19.9792 33.8542 19.5625 33.4375C19.1458 33.0208 18.6667 32.8125 18.125 32.8125ZM53.375 32.8125C52.7917 32.8125 52.3021 33.0208 51.9062 33.4375C51.5104 33.8542 51.3125 34.3333 51.3125 34.875C51.3125 35.4583 51.5104 35.9479 51.9062 36.3438C52.3021 36.7396 52.7917 36.9375 53.375 36.9375C53.9583 36.9375 54.4479 36.7396 54.8438 36.3438C55.2396 35.9479 55.4375 35.4583 55.4375 34.875C55.4375 34.3333 55.2396 33.8542 54.8438 33.4375C54.4479 33.0208 53.9583 32.8125 53.375 32.8125ZM41.625 28.5625H26.625C26.375 28.5625 26.1458 28.6562 25.9375 28.8438C25.7292 29.0312 25.625 29.2708 25.625 29.5625C25.625 29.8125 25.7292 30.0417 25.9375 30.25C26.1458 30.4583 26.375 30.5625 26.625 30.5625H41.625C41.9167 30.5625 42.1562 30.4583 42.3438 30.25C42.5312 30.0417 42.625 29.8125 42.625 29.5625C42.625 29.2708 42.5312 29.0312 42.3438 28.8438C42.1562 28.6562 41.9167 28.5625 41.625 28.5625ZM15.9375 24.25H3.125C2.875 24.25 2.64583 24.3542 2.4375 24.5625C2.22917 24.7708 2.125 25 2.125 25.25C2.125 25.5417 2.22917 25.7812 2.4375 25.9688C2.64583 26.1562 2.875 26.25 3.125 26.25H15.9375C16.2292 26.25 16.4688 26.1562 16.6562 25.9688C16.8438 25.7812 16.9375 25.5417 16.9375 25.25C16.9375 25 16.8438 24.7708 16.6562 24.5625C16.4688 24.3542 16.2292 24.25 15.9375 24.25ZM34.875 10.6875C34.6667 10.4792 34.4271 10.375 34.1562 10.375C33.8854 10.375 33.6458 10.4792 33.4375 10.6875L24.5 19.5625L19.875 14.9375C19.6667 14.7292 19.4271 14.625 19.1562 14.625C18.8854 14.625 18.6458 14.7292 18.4375 14.9375C18.2708 15.1458 18.1875 15.3854 18.1875 15.6562C18.1875 15.9271 18.2708 16.1667 18.4375 16.375L23.8125 21.6875C23.8958 21.8125 24 21.8958 24.125 21.9375C24.25 21.9792 24.375 22 24.5 22C24.625 22 24.75 21.9792 24.875 21.9375C25 21.8958 25.125 21.8125 25.25 21.6875L34.875 12.0625C35.0417 11.8958 35.125 11.6667 35.125 11.375C35.125 11.0833 35.0417 10.8542 34.875 10.6875Z" fill="#4BAF47"/>
</svg>
