<svg width="16" height="16" viewBox="0 0 16 16" fill="none" xmlns="http://www.w3.org/2000/svg">
<path d="M4.88006 0.105957H11.4584C13.9644 0.105957 16.0005 2.1421 16.0005 4.64813V11.2264C16.0005 12.4311 15.522 13.5864 14.6702 14.4382C13.8183 15.2901 12.663 15.7686 11.4584 15.7686H4.88006C2.37404 15.7686 0.337891 13.7325 0.337891 11.2264V4.64813C0.337891 3.44347 0.816439 2.28815 1.66826 1.43633C2.52008 0.584506 3.6754 0.105957 4.88006 0.105957ZM4.72343 1.67222C3.97571 1.67222 3.25862 1.96925 2.7299 2.49797C2.20119 3.02669 1.90416 3.74378 1.90416 4.4915V11.3831C1.90416 12.9415 3.165 14.2023 4.72343 14.2023H11.615C12.3627 14.2023 13.0798 13.9053 13.6085 13.3766C14.1372 12.8479 14.4343 12.1308 14.4343 11.3831V4.4915C14.4343 2.93307 13.1734 1.67222 11.615 1.67222H4.72343ZM12.2807 2.84692C12.5403 2.84692 12.7893 2.95006 12.9729 3.13364C13.1564 3.31722 13.2596 3.56621 13.2596 3.82584C13.2596 4.08546 13.1564 4.33445 12.9729 4.51803C12.7893 4.70162 12.5403 4.80475 12.2807 4.80475C12.021 4.80475 11.772 4.70162 11.5885 4.51803C11.4049 4.33445 11.3017 4.08546 11.3017 3.82584C11.3017 3.56621 11.4049 3.31722 11.5885 3.13364C11.772 2.95006 12.021 2.84692 12.2807 2.84692ZM8.16922 4.02162C9.20771 4.02162 10.2037 4.43416 10.938 5.16849C11.6723 5.90282 12.0849 6.89878 12.0849 7.93728C12.0849 8.97578 11.6723 9.97175 10.938 10.7061C10.2037 11.4404 9.20771 11.8529 8.16922 11.8529C7.13072 11.8529 6.13475 11.4404 5.40042 10.7061C4.6661 9.97175 4.25355 8.97578 4.25355 7.93728C4.25355 6.89878 4.6661 5.90282 5.40042 5.16849C6.13475 4.43416 7.13072 4.02162 8.16922 4.02162ZM8.16922 5.58788C7.54612 5.58788 6.94854 5.83541 6.50794 6.27601C6.06734 6.7166 5.81982 7.31418 5.81982 7.93728C5.81982 8.56038 6.06734 9.15796 6.50794 9.59856C6.94854 10.0392 7.54612 10.2867 8.16922 10.2867C8.79232 10.2867 9.38989 10.0392 9.83049 9.59856C10.2711 9.15796 10.5186 8.56038 10.5186 7.93728C10.5186 7.31418 10.2711 6.7166 9.83049 6.27601C9.38989 5.83541 8.79232 5.58788 8.16922 5.58788Z" fill="#FDFEFD"/>
</svg>
