
<svg width="24" height="25" viewBox="0 0 24 25" fill="none" xmlns="http://www.w3.org/2000/svg">
<path d="M11 13.4102H16M8 13.4102H8.00898M13 17.4102H8M16 17.4102H15.991" stroke="#000100" stroke-width="1.5" stroke-linecap="round" stroke-linejoin="round"/>
<path d="M18 2.41016V4.41016M6 2.41016V4.41016" stroke="#000100" stroke-width="1.5" stroke-linecap="round" stroke-linejoin="round"/>
<path d="M2.5 12.6534C2.5 8.2961 2.5 6.11744 3.75212 4.7638C5.00424 3.41016 7.01949 3.41016 11.05 3.41016H12.95C16.9805 3.41016 18.9958 3.41016 20.2479 4.7638C21.5 6.11744 21.5 8.2961 21.5 12.6534V13.167C21.5 17.5243 21.5 19.7029 20.2479 21.0566C18.9958 22.4102 16.9805 22.4102 12.95 22.4102H11.05C7.01949 22.4102 5.00424 22.4102 3.75212 21.0566C2.5 19.7029 2.5 17.5243 2.5 13.167V12.6534Z" stroke="#000100" stroke-width="1.5" stroke-linecap="round" stroke-linejoin="round"/>
<path d="M3 8.41016H21" stroke="#000100" stroke-width="1.5" stroke-linecap="round" stroke-linejoin="round"/>
</svg>