<svg
  width="17"
  height="18"
  viewBox="0 0 17 18"
  fill="none"
  xmlns="http://www.w3.org/2000/svg"
>
  <path
    d="M2.31811 4.50562C1.84085 4.50562 1.42325 4.3341 1.0653 3.99107C0.72227 3.63313 0.550755 3.21552 0.550755 2.73827C0.550755 2.26101 0.72227 1.8434 1.0653 1.48546C1.42325 1.12751 1.84085 0.948541 2.31811 0.948541C2.81028 0.948541 3.22788 1.12751 3.57092 1.48546C3.92886 1.8434 4.10783 2.26101 4.10783 2.73827C4.10783 3.21552 3.92886 3.63313 3.57092 3.99107C3.22788 4.3341 2.81028 4.50562 2.31811 4.50562ZM0.886328 17.0337V5.84791H3.77226V17.0337H0.886328ZM12.633 5.53471C13.8559 5.53471 14.8627 5.94486 15.6531 6.76515C16.4585 7.58544 16.8612 8.71893 16.8612 10.1656V17.0337H13.9753V10.5236C13.9753 9.77785 13.7739 9.2111 13.3712 8.82333C12.9685 8.42064 12.4316 8.2193 11.7605 8.2193C11.0148 8.2193 10.4182 8.45047 9.97075 8.91282C9.52332 9.37516 9.29961 10.0687 9.29961 10.9934V17.0337H6.41368V5.84791H9.29961V7.10072C10.0006 6.05671 11.1117 5.53471 12.633 5.53471Z"
    fill="#FDFEFD"
  />
</svg>