<svg width="12" height="17" viewBox="0 0 12 17" fill="none" xmlns="http://www.w3.org/2000/svg">
<path d="M5.99996 8.08366C5.44742 8.08366 4.91752 7.86417 4.52682 7.47346C4.13612 7.08276 3.91663 6.55286 3.91663 6.00033C3.91663 5.44779 4.13612 4.91789 4.52682 4.52719C4.91752 4.13649 5.44742 3.91699 5.99996 3.91699C6.55249 3.91699 7.0824 4.13649 7.4731 4.52719C7.8638 4.91789 8.08329 5.44779 8.08329 6.00033C8.08329 6.27391 8.02941 6.54482 7.92471 6.79758C7.82001 7.05034 7.66655 7.28001 7.4731 7.47346C7.27964 7.66692 7.04998 7.82038 6.79722 7.92507C6.54446 8.02977 6.27355 8.08366 5.99996 8.08366ZM5.99996 0.166992C4.45286 0.166992 2.96913 0.781574 1.87517 1.87554C0.781207 2.9695 0.166626 4.45323 0.166626 6.00033C0.166626 10.3753 5.99996 16.8337 5.99996 16.8337C5.99996 16.8337 11.8333 10.3753 11.8333 6.00033C11.8333 4.45323 11.2187 2.9695 10.1247 1.87554C9.03079 0.781574 7.54706 0.166992 5.99996 0.166992Z" fill="black"/>
</svg>