<svg width="62" height="58" viewBox="0 0 62 58" fill="none" xmlns="http://www.w3.org/2000/svg">
<path d="M48.4375 46.0625L47 47.4375L43.5625 44.0625H46.4375L48.4375 46.0625ZM54 46.0625C54 47.7292 53.4167 49.1458 52.25 50.3125C51.0833 51.4792 49.6667 52.0625 48 52.0625H42V50.0625H48C49.125 50.0625 50.0729 49.6667 50.8438 48.875C51.6146 48.0833 52 47.1458 52 46.0625C52 45.6875 51.9479 45.3333 51.8438 45C51.7396 44.6667 51.6042 44.3333 51.4375 44V44.0625H53.625C53.75 44.3542 53.8438 44.6667 53.9062 45C53.9688 45.3333 54 45.6875 54 46.0625ZM47 47.4375L40.5625 41.0625L47 34.625L48.4375 36.0625L43.4375 41.0625L48.4375 46.0625L47 47.4375ZM8 39.25V41.0625L3 39.0625V37.25L8 39.25ZM8 36.125V37.9375L3 35.9375V34.125L8 36.125ZM31.0625 55.1875L0 41.6875V18.4375L32.9375 0.9375L62 12.375V35.625L56.75 38.9375L55.6875 37.25L60 34.5V13.75L33.0625 3.125L2 19.625V40.375L30.9375 52.9375L37.125 49L38.1875 50.6875L31.0625 55.1875ZM31 55.0625C30.9167 55.0625 30.8438 55.0521 30.7812 55.0312C30.7188 55.0104 30.6458 54.9792 30.5625 54.9375H30.625L0.625 41.9375C0.416667 41.8958 0.260417 41.7917 0.15625 41.625C0.0520833 41.4583 0 41.2708 0 41.0625V19.0625C0 18.7708 0.09375 18.5312 0.28125 18.3438C0.46875 18.1562 0.708333 18.0625 1 18.0625C1.08333 18.0625 1.15625 18.0625 1.21875 18.0625C1.28125 18.0625 1.33333 18.0833 1.375 18.125L31.375 30.125C31.5417 30.2083 31.6875 30.3333 31.8125 30.5C31.9375 30.6667 32 30.8542 32 31.0625V54.0625C32 54.3125 31.9062 54.5417 31.7188 54.75C31.5312 54.9583 31.2917 55.0625 31 55.0625ZM2 40.375L30 52.5V31.75L2 20.5V40.375ZM31 55.0625C30.7083 55.0625 30.4688 54.9583 30.2812 54.75C30.0938 54.5417 30 54.3125 30 54.0625V31.0625C30 30.8542 30.0417 30.6771 30.125 30.5312C30.2083 30.3854 30.3333 30.2708 30.5 30.1875L60.5 12.1875C60.5833 12.1458 60.6667 12.1146 60.75 12.0938C60.8333 12.0729 60.9167 12.0625 61 12.0625C61.2917 12.0625 61.5312 12.1562 61.7188 12.3438C61.9062 12.5312 62 12.7708 62 13.0625V35.0625C62 35.2292 61.9583 35.3854 61.875 35.5312C61.7917 35.6771 61.6875 35.7917 61.5625 35.875L56.75 38.9375L55.6875 37.25L60 34.5V14.8125L32 31.625V52.25L37.125 49L38.1875 50.6875L31.5625 54.875C31.4792 54.9167 31.3854 54.9583 31.2812 55C31.1771 55.0417 31.0833 55.0625 31 55.0625ZM19 34.0625C18.9167 34.0625 18.8438 34.0521 18.7812 34.0312C18.7188 34.0104 18.6667 34 18.625 34L13.625 32C13.4583 31.9167 13.3125 31.7917 13.1875 31.625C13.0625 31.4583 13 31.2708 13 31.0625V24.25C13 23.9583 13.0938 23.7188 13.2812 23.5312C13.4688 23.3438 13.7083 23.25 14 23.25C14.0833 23.25 14.1562 23.2604 14.2188 23.2812C14.2812 23.3021 14.3333 23.3125 14.375 23.3125L19.375 25.3125C19.5417 25.3958 19.6875 25.5208 19.8125 25.6875C19.9375 25.8542 20 26.0417 20 26.25V33.0625C20 33.3125 19.9062 33.5417 19.7188 33.75C19.5312 33.9583 19.2917 34.0625 19 34.0625ZM15 30.375L18 31.5625V26.9375L15 25.75V30.375ZM19 27.25C18.9167 27.25 18.8438 27.2396 18.7812 27.2188C18.7188 27.1979 18.6667 27.1875 18.625 27.1875L13.625 25.1875C13.4583 25.1042 13.3125 24.9792 13.1875 24.8125C13.0625 24.6458 13 24.4583 13 24.25C13 24.0833 13.0417 23.9271 13.125 23.7812C13.2083 23.6354 13.3333 23.5 13.5 23.375L42.8125 5.25C42.8542 5.20833 42.9271 5.17708 43.0312 5.15625C43.1354 5.13542 43.2292 5.125 43.3125 5.125C43.3958 5.125 43.4688 5.125 43.5312 5.125C43.5938 5.125 43.6458 5.14583 43.6875 5.1875L48.75 7.1875C48.9167 7.22917 49.0521 7.33333 49.1562 7.5C49.2604 7.66667 49.3125 7.85417 49.3125 8.0625C49.3125 8.27083 49.2708 8.44792 49.1875 8.59375C49.1042 8.73958 49 8.85417 48.875 8.9375L19.5 27.125C19.4583 27.1667 19.3854 27.1979 19.2812 27.2188C19.1771 27.2396 19.0833 27.25 19 27.25ZM16.1875 24.0625L18.875 25.125L46.125 8.25L43.4375 7.1875L16.1875 24.0625ZM47 57.0625C45.2083 57.0625 43.5208 56.7083 41.9375 56C40.3542 55.3333 38.9792 54.4167 37.8125 53.25C36.6458 52.0833 35.7083 50.7083 35 49.125C34.3333 47.5417 34 45.8542 34 44.0625C34 42.2708 34.3333 40.5833 35 39C35.7083 37.4167 36.6458 36.0312 37.8125 34.8438C38.9792 33.6562 40.3542 32.7292 41.9375 32.0625C43.5208 31.3958 45.2083 31.0625 47 31.0625C48.7917 31.0625 50.4792 31.3958 52.0625 32.0625C53.6458 32.7292 55.0208 33.6562 56.1875 34.8438C57.3542 36.0312 58.2917 37.4167 59 39C59.6667 40.5833 60 42.2708 60 44.0625C60 45.8542 59.6667 47.5417 59 49.125C58.2917 50.7083 57.3542 52.0833 56.1875 53.25C55.0208 54.4167 53.6458 55.3333 52.0625 56C50.4792 56.7083 48.7917 57.0625 47 57.0625ZM47 33.0625C43.9583 33.0625 41.3646 34.1354 39.2188 36.2812C37.0729 38.4271 36 41.0208 36 44.0625C36 47.1042 37.0729 49.6979 39.2188 51.8438C41.3646 53.9896 43.9583 55.0625 47 55.0625C50.0417 55.0625 52.6354 53.9896 54.7812 51.8438C56.9271 49.6979 58 47.1042 58 44.0625C58 41.0208 56.9271 38.4271 54.7812 36.2812C52.6354 34.1354 50.0417 33.0625 47 33.0625ZM48 52.0625H42V50.0625H48C49.125 50.0625 50.0729 49.6667 50.8438 48.875C51.6146 48.0833 52 47.1458 52 46.0625C52 44.9375 51.6146 43.9896 50.8438 43.2188C50.0729 42.4479 49.125 42.0625 48 42.0625H42V40.0625H48C49.6667 40.0625 51.0833 40.6458 52.25 41.8125C53.4167 42.9792 54 44.3958 54 46.0625C54 47.7292 53.4167 49.1458 52.25 50.3125C51.0833 51.4792 49.6667 52.0625 48 52.0625Z" fill="#4BAF47"/>
</svg>
