<svg width="21" height="16" viewBox="0 0 21 16" fill="none" xmlns="http://www.w3.org/2000/svg">
<path d="M20.5787 1.90706C19.8559 2.2349 19.0768 2.45034 18.2696 2.55338C19.0956 2.05693 19.7339 1.27012 20.0343 0.324064C19.2552 0.792407 18.3916 1.12025 17.4812 1.30758C16.7396 0.502034 15.6978 0.0336914 14.5151 0.0336914C12.3093 0.0336914 10.5071 1.83213 10.5071 4.05207C10.5071 4.37054 10.5446 4.67965 10.6103 4.97002C7.2688 4.80142 4.29332 3.19969 2.31279 0.773673C1.9655 1.36378 1.76838 2.05693 1.76838 2.78755C1.76838 4.18321 2.47236 5.41963 3.56118 6.12215C2.89475 6.12215 2.27525 5.93481 1.73084 5.6538V5.6819C1.73084 7.63021 3.12002 9.26004 4.95975 9.62535C4.36919 9.78734 3.74894 9.80979 3.14818 9.69092C3.40312 10.4894 3.90241 11.1881 4.57586 11.6888C5.24931 12.1895 6.06307 12.467 6.90273 12.4822C5.47944 13.6067 3.71512 14.2145 1.89979 14.2057C1.58066 14.2057 1.26152 14.187 0.942383 14.1495C2.72579 15.2923 4.84711 15.9573 7.11861 15.9573C14.5151 15.9573 18.5794 9.83142 18.5794 4.52041C18.5794 4.34244 18.5794 4.17384 18.57 3.99587C19.3584 3.43386 20.0343 2.72198 20.5787 1.90706Z" fill="#FDFEFD"/>
</svg>