<svg width="17" height="17" viewBox="0 0 17 17" fill="none" xmlns="http://www.w3.org/2000/svg">
<path d="M8.74541 14.8464C12.3278 14.8464 15.2425 11.9317 15.2425 8.34932C15.2425 4.76697 12.3278 1.85221 8.74541 1.85221C5.16307 1.85221 2.2483 4.76697 2.2483 8.34932C2.2483 11.9317 5.16307 14.8464 8.74541 14.8464ZM8.74541 16.4707C4.25997 16.4707 0.624023 12.8348 0.624023 8.34932C0.624023 3.86387 4.25997 0.22793 8.74541 0.22793C13.2309 0.22793 16.8668 3.86387 16.8668 8.34932C16.8668 12.8348 13.2309 16.4707 8.74541 16.4707ZM9.55755 5.9129H7.93327V4.28862H9.55755V5.9129ZM7.93327 7.53718H9.55755L9.96362 12.41H7.5272L7.93327 7.53718Z" fill="#4F4F4F"/>
</svg>